<?xml version="1.0" encoding="utf-8"?>
<!-- Generator: Adobe Illustrator 21.1.0, SVG Export Plug-In . SVG Version: 6.00 Build 0)  -->
<svg version="1.1" id="Layer_1" xmlns="http://www.w3.org/2000/svg" xmlns:xlink="http://www.w3.org/1999/xlink" x="0px" y="0px"
	 viewBox="0 0 2558 610" style="enable-background:new 0 0 2558 610;" xml:space="preserve">
<style type="text/css">
	.st0{fill:#004785;}
	.st1{fill:#A90533;}
	.st2{fill:none;stroke:#231F20;stroke-width:0.385;stroke-miterlimit:2.613;}
	.st3{fill:#FFFFFF;}
	.st4{fill:none;stroke:#004785;stroke-width:1.265;stroke-miterlimit:2.613;}
	.st5{fill:none;stroke:#004785;stroke-width:4;stroke-miterlimit:2.613;}
	.st6{fill:none;stroke:#004785;stroke-width:12;stroke-miterlimit:2.613;}
</style>
<g>
	<g>
		<g>
			<path class="st0" d="M459.8,184.4c0,27.9,6.7,35.8,25.5,35.8v6.7h-81v-6.7c15.7,0,25.5-5.1,25.5-35V44.1
				c0-27.5-6.7-35.8-25.5-35.8V1.7h82.1c62.1,0,87.3,33,87.3,64.1c0,37.3-28.3,58.2-79.4,58.2c-9.8,0-18.1-0.4-34.6-2.4L459.8,184.4
				L459.8,184.4z M459.8,111.3c10.2,3.5,16.1,3.9,27.9,3.9c33.4,0,54.6-18.1,54.6-48.7c0-24-13.4-56.2-54.6-56.2h-27.9V111.3z"/>
			<path class="st0" d="M612.3,142c-0.8,62.5,36.6,78.2,55.4,78.2c19.3,0,29.1-6.7,49.1-29.1v10.2c-16.9,21.6-33,29.9-57.4,29.9
				c-43.6,0-75.1-30.3-75.1-72.3s30.7-75.1,70-75.1c32.2,0,62.1,25.9,60.1,58.2L612.3,142L612.3,142z M688.2,135.3
				c1.2-30.7-19.7-43.2-37.3-43.2c-23.2,0-36.9,17.3-38.5,43.2H688.2z"/>
			<path class="st0" d="M881.1,196.6c0,18.1,3.9,23.6,23.6,23.6v6.7h-74.3v-6.7c18.9,0,24-4.3,24-17.3v-72.7
				c0-22.4-16.1-31.8-31-31.8c-13.8,0-25.9,8.6-39.7,27.1v68c0,21.2,2.8,26.7,23.6,26.7v6.7h-73.5v-6.7c18.5,0,23.2-1.6,23.2-26.7
				v-78.2c0-16.9-4.3-20.4-23.2-20.4v-6.7l43.2-4.3h6.7v27.9c16.5-18.9,32.6-27.9,50.3-27.9c23.2,0,47.2,16.5,47.2,49.9L881.1,196.6
				L881.1,196.6z"/>
			<path class="st0" d="M1061.1,196.6c0,18.1,3.9,23.6,23.6,23.6v6.7h-74.3v-6.7c18.9,0,24-4.3,24-17.3v-72.7
				c0-22.4-16.1-31.8-31-31.8c-13.8,0-25.9,8.6-39.7,27.1v68c0,21.2,2.8,26.7,23.6,26.7v6.7h-73.5v-6.7c18.5,0,23.2-1.6,23.2-26.7
				v-78.2c0-16.9-4.3-20.4-23.2-20.4v-6.7l43.2-4.3h6.7v27.9c16.5-18.9,32.6-27.9,50.3-27.9c23.2,0,47.2,16.5,47.2,49.9
				L1061.1,196.6L1061.1,196.6z"/>
		</g>
	</g>
	<g>
		<g>
			<path class="st0" d="M486.8,346.6h-3.9c-2.8-11.2-4.8-12.6-18.3-12.6H432v47c0,6.4,2.3,8.9,9.6,8.9h22.9
				c19.3,0,24.1-0.9,31.9-18.1h3.9l-6,24.5h-94.7v-3.9c10.3,0,14.9-3.2,14.9-20.6v-82.1c0-16.3-3.7-20.9-14.9-20.9V265h94.7v22h-2.5
				c-3-14.4-7.6-15.6-22-15.6H432v56.2h36.7c8.9,0,12.4-1.6,14.2-12.8h3.9L486.8,346.6L486.8,346.6z"/>
			<path class="st0" d="M597.1,378.7c0,10.5,2.3,13.8,13.8,13.8v3.9h-43.3v-3.9c11,0,14-2.5,14-10.1V340c0-13.1-9.4-18.6-18.1-18.6
				c-8,0-15.1,5-23.2,15.8v39.7c0,12.4,1.6,15.6,13.8,15.6v3.9h-42.9v-3.9c10.8,0,13.5-0.9,13.5-15.6v-45.6
				c0-9.9-2.5-11.9-13.5-11.9v-3.9l25.2-2.5h3.9v16.3c9.6-11,19-16.3,29.3-16.3c13.5,0,27.5,9.6,27.5,29.1V378.7z"/>
			<path class="st0" d="M706.6,323h-21.5c6.4,7.8,9.2,15.8,9.2,23.6c0,16-13.3,31.2-30.3,32.1c-12.6,0.7-26.4,10.1-26.4,15.1
				c0,2.8,0.5,3.2,1.6,4.6c6.4,7.6,49.1,7.6,60.5,19c4.8,4.8,6.6,8.7,6.6,14.4c0,19-22,33.9-50,33.9c-23.6,0-39.9-9.9-39.9-24.8
				c0-8.9,5.7-17,26.4-25.4V415c-11-2.5-17.7-8-17.7-14.9c0-9.4,8.9-16.5,25-22.2v-0.5c-16.3-4.4-25.4-15.6-25.4-30.7
				c0-19.5,14.7-33.9,34.4-33.9c3,0,6.9,0.2,10.8,0.5s7.8,0.5,10.5,0.5h26.1v9.2H706.6z M650.2,417.4c-15.1,4.1-23.6,11-23.6,19.3
				c0,11.7,17.7,20.4,40.8,20.4c17.9,0,30.5-7.3,30.5-18.1C697.9,428.9,689.2,424.1,650.2,417.4z M659.4,374.5
				c11.9,0,20.2-10.5,20.2-29.3c0-16.5-8-27.7-19.9-27.7c-12.1,0-20.2,11.2-20.2,27.7C639.5,362.9,647.5,374.5,659.4,374.5z"/>
			<path class="st0" d="M747.9,381.2c0,8,2.1,11.2,13.5,11.2v3.9H717v-3.9c12.4,0,15.4-1.6,15.4-11.2v-49.7
				c0-11.2-3.4-12.1-15.4-12.1v-3.9l27-2.5h3.9V381.2z M750.2,280.8c0,5.5-4.4,10.1-9.9,10.1s-10.1-4.6-10.1-10.1s4.6-9.9,10.1-9.9
				S750.2,275.3,750.2,280.8z"/>
			<path class="st0" d="M854.5,378.7c0,10.5,2.3,13.8,13.8,13.8v3.9H825v-3.9c11,0,14-2.5,14-10.1V340c0-13.1-9.4-18.6-18.1-18.6
				c-8,0-15.1,5-23.2,15.8v39.7c0,12.4,1.6,15.6,13.8,15.6v3.9h-42.9v-3.9c10.8,0,13.5-0.9,13.5-15.6v-45.6
				c0-9.9-2.5-11.9-13.5-11.9v-3.9l25.2-2.5h3.9v16.3c9.6-11,19-16.3,29.3-16.3c13.5,0,27.5,9.6,27.5,29.1V378.7z"/>
			<path class="st0" d="M895.7,346.8c-0.5,36.4,21.3,45.6,32.3,45.6c11.2,0,17-3.9,28.7-17v6c-9.9,12.6-19.3,17.4-33.5,17.4
				c-25.4,0-43.8-17.7-43.8-42.2s17.9-43.8,40.8-43.8c18.8,0,36.2,15.1,35.1,33.9h-59.6V346.8z M940,342.9
				c0.7-17.9-11.5-25.2-21.8-25.2c-13.5,0-21.5,10.1-22.5,25.2H940z"/>
			<path class="st0" d="M988.8,346.8c-0.5,36.4,21.3,45.6,32.3,45.6c11.2,0,17-3.9,28.7-17v6c-9.9,12.6-19.3,17.4-33.5,17.4
				c-25.4,0-43.8-17.7-43.8-42.2s17.9-43.8,40.8-43.8c18.8,0,36.2,15.1,35.1,33.9h-59.6V346.8z M1033.1,342.9
				c0.7-17.9-11.5-25.2-21.8-25.2c-13.5,0-21.5,10.1-22.5,25.2H1033.1z"/>
			<path class="st0" d="M1091.3,381c0,8.9,2.8,11.5,13.5,11.5v3.9h-42.9v-3.9c12.4,0,13.8-3.2,13.8-15.6v-44.2
				c0-11.9-3-13.3-16.7-13.3v-3.9l28.4-2.5h3.9v17.7c15.1-13.1,22.2-17.7,27.7-17.7c4.6,0,10.8,2.8,14.9,6.4l-6.2,14.4
				c-6.6-3.7-13.8-7.1-19.3-7.1c-5.3,0-9.9,2.8-17.2,9.9L1091.3,381L1091.3,381z"/>
			<path class="st0" d="M1174.7,381.2c0,8,2.1,11.2,13.5,11.2v3.9h-44.5v-3.9c12.4,0,15.4-1.6,15.4-11.2v-49.7
				c0-11.2-3.4-12.1-15.4-12.1v-3.9l27-2.5h3.9L1174.7,381.2L1174.7,381.2z M1177,280.8c0,5.5-4.4,10.1-9.9,10.1
				s-10.1-4.6-10.1-10.1s4.6-9.9,10.1-9.9C1172.7,270.9,1177,275.3,1177,280.8z"/>
			<path class="st0" d="M1281.3,378.7c0,10.5,2.3,13.8,13.8,13.8v3.9h-43.3v-3.9c11,0,14-2.5,14-10.1V340c0-13.1-9.4-18.6-18.1-18.6
				c-8,0-15.1,5-23.2,15.8v39.7c0,12.4,1.6,15.6,13.8,15.6v3.9h-42.9v-3.9c10.8,0,13.5-0.9,13.5-15.6v-45.6
				c0-9.9-2.5-11.9-13.5-11.9v-3.9l25.2-2.5h3.9v16.3c9.6-11,19-16.3,29.3-16.3c13.5,0,27.5,9.6,27.5,29.1L1281.3,378.7
				L1281.3,378.7z"/>
			<path class="st0" d="M1390.9,323h-21.5c6.4,7.8,9.2,15.8,9.2,23.6c0,16-13.3,31.2-30.3,32.1c-12.6,0.7-26.4,10.1-26.4,15.1
				c0,2.8,0.5,3.2,1.6,4.6c6.4,7.6,49.1,7.6,60.5,19c4.8,4.8,6.6,8.7,6.6,14.4c0,19-22,33.9-50,33.9c-23.6,0-39.9-9.9-39.9-24.8
				c0-8.9,5.7-17,26.4-25.4V415c-11-2.5-17.7-8-17.7-14.9c0-9.4,8.9-16.5,25-22.2v-0.5c-16.3-4.4-25.4-15.6-25.4-30.7
				c0-19.5,14.7-33.9,34.4-33.9c3,0,6.9,0.2,10.8,0.5c3.9,0.2,7.8,0.5,10.5,0.5h26.1v9.2H1390.9z M1334.5,417.4
				c-15.1,4.1-23.6,11-23.6,19.3c0,11.7,17.7,20.4,40.8,20.4c17.9,0,30.5-7.3,30.5-18.1C1382.2,428.9,1373.5,424.1,1334.5,417.4z
				 M1343.7,374.5c11.9,0,20.2-10.5,20.2-29.3c0-16.5-8-27.7-19.9-27.7c-12.1,0-20.2,11.2-20.2,27.7
				C1323.7,362.9,1331.7,374.5,1343.7,374.5z"/>
		</g>
	</g>
	<g>
		<g>
			<path class="st0" d="M1743.2,221.6c-12,3.4-50.1,5.2-59.9,5.2c-94.3,0-125.7-56.9-125.7-106.3C1557.7,44.6,1615.3,2,1668,2
				c30.3,0,41.9,10.1,58.4,10.1c6.7,0,9.7-1.9,12-7.1h6.7v63.2h-6c-5.6-40.8-41.9-58-71.1-58c-44.1,0-77.4,38.5-77.4,97.3
				c0,62.9,37.4,109.2,88.3,109.2c15.3,0,35.9-3.7,35.9-22.8v-23.2c0-26.2-6-35.5-23.6-35.5h-8.2v-6.4h86.8v6.4
				c-21,0-26.6,10.1-26.6,28.8L1743.2,221.6L1743.2,221.6z"/>
			<path class="st0" d="M1846.5,181.2c0,26.2,6.7,34,24.3,34v6.4h-77.1v-6.4c16.5,0,24.3-5.2,24.3-34V46.9
				c0-28.1-7.1-33.3-24.3-33.3V7.2h87.9c48.3,0,71.5,27.7,71.5,56.1c0,23.6-12.7,43.4-44.1,52.8c40,25.8,53.5,96.5,89,99.1v6.4
				h-43.8c-40-48.6-51.3-99.1-90.5-99.1h-17.2L1846.5,181.2L1846.5,181.2z M1846.5,113.5h26.2c36.3,0,50.5-24.7,50.5-49.4
				c0-28.4-21.3-48.6-54.2-48.6h-22.4L1846.5,113.5L1846.5,113.5z"/>
			<path class="st0" d="M2139.1,134.8h-69.2l-14.6,43c-7.1,21-10.8,37,11.6,37.4v6.4h-55.4v-6.4c20.2-3,25.1-13.8,31.8-33.7
				L2102.4,5h22.1l62.1,184.4c6.4,19.8,11.6,25.8,30.7,25.8v6.4h-75.6v-6.4c14.6,0,21.7-6.4,16.8-21L2139.1,134.8z M2104.6,30.8
				h-0.7l-29.9,90.9h60.2L2104.6,30.8z"/>
			<path class="st0" d="M2358.7,54.4h-6.4c-3.4-31.8-25.8-44.1-47.5-44.1c-22.4,0-38.5,12.3-38.5,32.2c0,39.7,54.6,50.1,85.3,80.8
				c15,15,18.7,28.4,18.7,42.7c0,33.7-27.3,61-61,61c-22.8,0-41.9-11.2-49-11.2c-3.7,0-6.4,2.6-8.2,8.2h-6.4v-58h6.4
				c0.4,39.7,32.9,52.8,51.6,52.8c25.8,0,43-15,43-38.2c0-37-57.6-54.2-81.6-78.2c-13.1-13.1-18.3-28.1-18.3-44.9
				c0-32.9,23.6-55.4,58.4-55.4c22.8,0,33.7,8.2,41.9,8.2c3.4,0,4.1-0.7,5.6-6h6V54.4z"/>
			<path class="st0" d="M2448.4,181.2c0,26.6,6.4,34,24.3,34v6.4h-77.1v-6.4c15,0,24.3-4.9,24.3-33.3V47.6c0-26.2-6.4-34-24.3-34
				V7.2h78.2c59.1,0,83.1,31.4,83.1,61c0,35.5-26.9,55.4-75.6,55.4c-9.4,0-17.2-0.4-32.9-2.2V181.2z M2448.4,111.6
				c9.7,3.4,15.3,3.7,26.6,3.7c31.8,0,52-17.2,52-46.4c0-22.8-12.7-53.5-52-53.5h-26.6V111.6z"/>
		</g>
	</g>
	<g>
		<g>
			<path class="st0" d="M1694.9,396.2h-95.1v-3.9c10.5,0,14.9-5.7,14.9-22v-82.5c0-15.1-4.4-19-14.9-19v-3.9h47v3.9
				c-11,0-14.7,6.6-14.7,20.6v87.8c0,10.3,3.9,12.6,14.9,12.6h26.1c15.8,0,20.2-3.4,25.9-22.2h3.9L1694.9,396.2z"/>
			<path class="st0" d="M1771.9,377.5c0,9.4,0.9,12.6,4.6,12.6c2.5,0,3.7-2.1,5.5-7.8h3.9c-0.7,10.1-6.6,16.5-15.8,16.5
				c-6.9,0-11-3.4-13.8-11.5c-8,8.7-13.3,11.5-21.8,11.5c-12.6,0-23.2-9.6-23.2-21.5c0-23.2,31.6-22.2,44.9-30v-6
				c0-11.5-6.6-19.7-18.1-19.7c-9.2,0-18.1,5.7-21.5,17.4l-4.1-1.1c3.4-15.1,15.4-25,30-25c13.5,0,29.3,7.8,29.3,29.8L1771.9,377.5
				L1771.9,377.5z M1756.3,352.2c-15.4,6.6-29.1,6.4-29.1,22.9c0,8.3,5.7,14.9,12.4,14.9c4.8,0,13.5-3.4,16.7-10.3V352.2z"/>
			<path class="st0" d="M1818,325c6.9-7.6,17.4-12.1,27.3-12.1c21.1,0,37.6,17.4,37.6,39.7c0,19.3-13.5,44.7-55.2,44.7
				c-6.6,0-14.2-0.7-25.2-2.5V272.9c0-12.4-1.4-14-14.4-14V255l26.1-2.8h3.9V325H1818z M1818,377.2c0,10.8,2.5,15.8,13.8,15.8
				c17.9,0,34.2-11,34.2-38.7c0-23.2-14.7-34.8-27-34.8c-8.3,0-14.4,3.4-20.9,11.5L1818,377.2L1818,377.2z"/>
			<path class="st0" d="M1943.4,398.8c-25.4,0-44.5-18.3-44.5-42.9c0-24.8,19-43.1,44.5-43.1c25.4,0,44.5,18.3,44.5,43.1
				C1987.9,380.4,1968.8,398.8,1943.4,398.8z M1943.4,317.4c-17.2,0-27.5,15.1-27.5,38.5c0,20.9,8.7,38.3,27.5,38.3
				c19.3,0,27.5-18.6,27.5-38.3C1970.9,335.5,1962.2,317.4,1943.4,317.4z"/>
			<path class="st0" d="M2029.8,380.9c0,8.9,2.8,11.5,13.5,11.5v3.9h-42.9v-3.9c12.4,0,13.8-3.2,13.8-15.6v-44.2
				c0-11.9-3-13.3-16.7-13.3v-3.9l28.4-2.5h3.9v17.7c15.1-13.1,22.2-17.7,27.7-17.7c4.6,0,10.8,2.8,14.9,6.4l-6.2,14.4
				c-6.6-3.7-13.8-7.1-19.3-7.1c-5.3,0-9.9,2.8-17.2,9.9L2029.8,380.9L2029.8,380.9z"/>
			<path class="st0" d="M2142.1,377.5c0,9.4,0.9,12.6,4.6,12.6c2.5,0,3.7-2.1,5.5-7.8h3.9c-0.7,10.1-6.6,16.5-15.8,16.5
				c-6.9,0-11-3.4-13.8-11.5c-8,8.7-13.3,11.5-21.8,11.5c-12.6,0-23.2-9.6-23.2-21.5c0-23.2,31.6-22.2,44.9-30v-6
				c0-11.5-6.6-19.7-18.1-19.7c-9.2,0-18.1,5.7-21.5,17.4l-4.1-1.1c3.4-15.1,15.4-25,30-25c13.5,0,29.3,7.8,29.3,29.8v34.8H2142.1z
				 M2126.5,352.2c-15.4,6.6-29.1,6.4-29.1,22.9c0,8.3,5.7,14.9,12.4,14.9c4.8,0,13.5-3.4,16.7-10.3L2126.5,352.2L2126.5,352.2z"/>
			<path class="st0" d="M2190.9,314.9h28.2v6h-28.2v52.3c0,11.2,5.7,17,14.7,17c6,0,10.3-2.3,15.1-7.8l2.5,3
				c-7.1,8.9-15.4,13.5-24.5,13.5c-13.8,0-23.4-9.6-23.4-23.6V321H2160v-3.9c11-5.5,20.2-15.4,27-29.3h3.9V314.9z"/>
			<path class="st0" d="M2275.8,398.8c-25.4,0-44.5-18.3-44.5-42.9c0-24.8,19-43.1,44.5-43.1c25.4,0,44.5,18.3,44.5,43.1
				C2320.2,380.4,2301.2,398.8,2275.8,398.8z M2275.8,317.4c-17.2,0-27.5,15.1-27.5,38.5c0,20.9,8.7,38.3,27.5,38.3
				c19.3,0,27.5-18.6,27.5-38.3C2303.3,335.5,2294.6,317.4,2275.8,317.4z"/>
			<path class="st0" d="M2362.2,380.9c0,8.9,2.8,11.5,13.5,11.5v3.9h-42.9v-3.9c12.4,0,13.8-3.2,13.8-15.6v-44.2
				c0-11.9-3-13.3-16.7-13.3v-3.9l28.4-2.5h3.9v17.7c15.1-13.1,22.2-17.7,27.7-17.7c4.6,0,10.8,2.8,14.9,6.4l-6.2,14.4
				c-6.6-3.7-13.8-7.1-19.3-7.1c-5.3,0-9.9,2.8-17.2,9.9v44.4H2362.2z"/>
			<path class="st0" d="M2465.6,377.5l14.2-42.9c3.2-9.6,2.5-14.9-6.4-15.4v-3.9h28.7v3.9c-8.7,0-14,5.5-18.6,19l-32.3,95.6
				c-6.4,18.8-17,29.6-26.8,29.6c-3.4,0-6-0.9-10.1-3.4l5.3-14c3.2,1.4,5,1.8,7.8,1.8c9.9,0,15.6-5.7,20.6-19.9l10.5-29.3
				l-29.1-67.2c-4.1-9.4-7.1-11.9-16.5-12.1v-3.9h39v3.9c-6.2,0.9-8.7,5.5-5.7,12.4L2465.6,377.5z"/>
		</g>
	</g>
	<g>
		<path class="st1" d="M2.7,114.9c0.7,0.3,0.1-113.2,0-112.7H374c0.2-0.4,0.2,60.4,0,112.7H2.7"/>
	</g>
	<g>
		<path class="st0" d="M23.9,279.4c14,30.5,31.7,54.7,57,75.6l107.4-110.1l104.8,107.4c20.9-19.8,41.8-43.6,57-71.6L188.3,125.5
			L23.9,280.7V279.4"/>
	</g>
	<g>
		<line class="st2" x1="2.7" y1="114.9" x2="374" y2="114.9"/>
	</g>
	<g>
		<path class="st3" d="M281.2,30h10.6c6.9-1.9,9.6-6.2,17.2-6.6c5.4,0.4,8,4,11.9,4c3.4,0.1,8.7-3.8,14.6-4
			c5.6,0.2,8.5,3.7,11.9,5.3c3.8,1.5,8.2,1.4,13.3,1.3c-0.4,3.4-0.3,5.5,0,8c-0.3,3.2,3.6,2.1,4,6.6c-0.4,5.1-5.4,4.2-5.3,6.6v18.6
			c0,1.7,4.6,2,4,5.3c0.6,5.4-4.6,3.6-4,8c0,2.8-0.2,9.2,0,9.3c-10.2-0.1-74.4,0.5-76.9,0c-0.5-6.5,0.6-6,1.3-9.3
			c-0.3-2.7-6.3-4.4-6.6-9.3c0.4-2.6,3.9-2.4,4-5.3V49.9c0.1-2.3-5.3-3.5-5.3-6.6c0.4-4.4,5.2-3.9,5.3-6.6
			C281.1,35.4,281.2,30.9,281.2,30z"/>
	</g>
	<g>
		<path class="st4" d="M281.2,30h10.6c6.9-1.9,9.6-6.2,17.2-6.6c5.4,0.4,8,4,11.9,4c3.4,0.1,8.7-3.8,14.6-4
			c5.6,0.2,8.5,3.7,11.9,5.3c3.8,1.5,8.2,1.4,13.3,1.3c-0.4,3.4-0.3,5.5,0,8c-0.3,3.2,3.6,2.1,4,6.6c-0.4,5.1-5.4,4.2-5.3,6.6v18.6
			c0,1.7,4.6,2,4,5.3c0.6,5.4-4.6,3.6-4,8c0,2.8-0.2,9.2,0,9.3c-10.2-0.1-74.4,0.5-76.9,0c-0.5-6.5,0.6-6,1.3-9.3
			c-0.3-2.7-6.3-4.4-6.6-9.3c0.4-2.6,3.9-2.4,4-5.3V49.9c0.1-2.3-5.3-3.5-5.3-6.6c0.4-4.4,5.2-3.9,5.3-6.6
			C281.1,35.4,281.2,30.9,281.2,30z"/>
	</g>
	<g>
		<path class="st4" d="M320.9,27.4v53 M289.1,30c0.2,0.1,0.4,41.2,0,50.4c0.2,0.5,60.1,0.6,62.3,0c0.4-10.6,0.4-50.6,0-50.4"/>
	</g>
	<g>
		<path class="st0" d="M322.3,73.8c2,0.8,6.8,2.5,11.9,4c5.7,1.8,12.1,0.5,17.2,1.3c1.2,0.5-29.8,0.7-29.2,1.3
			C321.7,73.8,321.6,74.4,322.3,73.8z"/>
	</g>
	<g>
		<path class="st4" d="M322.3,73.8c2,0.8,6.8,2.5,11.9,4c5.7,1.8,12.1,0.5,17.2,1.3c1.2,0.5-29.8,0.7-29.2,1.3
			C321.7,73.8,321.6,74.4,322.3,73.8z"/>
	</g>
	<g>
		<path class="st0" d="M317,81.8c0.2-0.7,1.8-1.8,4-1.3c1.6-0.5,3.2,0.6,2.7,1.3c0.5,1.9-1,3-2.7,2.7
			C318.7,84.8,317.2,83.7,317,81.8z"/>
	</g>
	<g>
		<path class="st4" d="M317,81.8c0.2-0.7,1.8-1.8,4-1.3c1.6-0.5,3.2,0.6,2.7,1.3c0.5,1.9-1,3-2.7,2.7
			C318.7,84.8,317.2,83.7,317,81.8z"/>
	</g>
	<g>
		<path class="st0" d="M318.3,73.8c-2,0.8-6.8,2.5-11.9,4c-5.7,1.8-12.1,0.5-17.2,1.3c-1.2,0.5,29.8,0.7,29.2,1.3
			C318.8,73.8,318.9,74.4,318.3,73.8z"/>
	</g>
	<g>
		<path class="st4" d="M318.3,73.8c-2,0.8-6.8,2.5-11.9,4c-5.7,1.8-12.1,0.5-17.2,1.3c-1.2,0.5,29.8,0.7,29.2,1.3
			C318.8,73.8,318.9,74.4,318.3,73.8z"/>
	</g>
	<g>
		<path class="st3" d="M112.7,97.7c1.4,3.9,4.4,6.5,9.3,6.6c8.9-0.1,17.6-6.8,22.5-10.6c4.3-2.8,8.5-5.9,8-11.9v2.7
			c-0.2-0.5,6.8-7.6,23.9-2.7c5.1,2.2,25.7,13.8,30.5,15.9c3.5,1.4,16.9,11,38.5,8c-0.5-0.7,31.5-5.1,23.9-38.5
			c-4.7-23.2-3.1-24.8-1.3-31.8c-0.5-0.9-19.4-5.2-18.6,21.2c-8.5,0.6-18.9,6.7-11.9,22.5c2.6-3.7,6.3-8.1,11.9-8
			c2.6-0.1,6,4.5,6.6,8c0.1,8.2-8.2,11.8-18.6,10.6c-5.1-1.4-10-7.2-17.2-11.9c1.3-1,2.5-5.3,2.7-6.6c-0.2-4.5-3.7-6.4-6.6-8
			c0.9-1.3,1.9-3.3,1.3-5.3c0.6-2.7-4.1-2.5-5.3-4c0.2-0.8,0.2-0.2,0-1.3c0.2-5.2,0.9-7.9-9.3-8c1.2-4.5,0.2-7.6-2.7-9.3h-8
			c-4.3-1.4,0.2-2.9-4-6.6c-3.7-3.9-9.9-0.3-9.3,0c-0.6-3.6-2.9-6.3-6.6-6.6c-2.4,0.3-5,0.5-6.6,1.3l-2.7,2.7c-4-0.2-5-3.6-9.3-4
			c-4.3,0.3-6.1,3.7-8,5.3c-2.8-0.8-3.2-3.3-6.6-2.7c-2.8-0.6-3.5,1.9-4,2.7c-3.1,3.2-2.9,6.2-6.6,8l-1.3-2.7
			c-0.5-0.5-0.6-0.7,0-1.3c-6.5,3.3-19.8,33.7-19.9,39.8c0.1,6.1,5.2,3.5,5.3,9.3c-0.1,4.3-5.6,7-5.3,10.6c-0.3,3.7,4.4,5.7,8,5.3
			L112.7,97.7z"/>
	</g>
	<g>
		<path class="st4" d="M112.7,97.7c1.4,3.9,4.4,6.5,9.3,6.6c8.9-0.1,17.6-6.8,22.5-10.6c4.3-2.8,8.5-5.9,8-11.9v2.7
			c-0.2-0.5,6.8-7.6,23.9-2.7c5.1,2.2,25.7,13.8,30.5,15.9c3.5,1.4,16.9,11,38.5,8c-0.5-0.7,31.5-5.1,23.9-38.5
			c-4.7-23.2-3.1-24.8-1.3-31.8c-0.5-0.9-19.4-5.2-18.6,21.2c-8.5,0.6-18.9,6.7-11.9,22.5c2.6-3.7,6.3-8.1,11.9-8
			c2.6-0.1,6,4.5,6.6,8c0.1,8.2-8.2,11.8-18.6,10.6c-5.1-1.4-10-7.2-17.2-11.9c1.3-1,2.5-5.3,2.7-6.6c-0.2-4.5-3.7-6.4-6.6-8
			c0.9-1.3,1.9-3.3,1.3-5.3c0.6-2.7-4.1-2.5-5.3-4c0.2-0.8,0.2-0.2,0-1.3c0.2-5.2,0.9-7.9-9.3-8c1.2-4.5,0.2-7.6-2.7-9.3h-8
			c-4.3-1.4,0.2-2.9-4-6.6c-3.7-3.9-9.9-0.3-9.3,0c-0.6-3.6-2.9-6.3-6.6-6.6c-2.4,0.3-5,0.5-6.6,1.3l-2.7,2.7c-4-0.2-5-3.6-9.3-4
			c-4.3,0.3-6.1,3.7-8,5.3c-2.8-0.8-3.2-3.3-6.6-2.7c-2.8-0.6-3.5,1.9-4,2.7c-3.1,3.2-2.9,6.2-6.6,8l-1.3-2.7
			c-0.5-0.5-0.6-0.7,0-1.3c-6.5,3.3-19.8,33.7-19.9,39.8c0.1,6.1,5.2,3.5,5.3,9.3c-0.1,4.3-5.6,7-5.3,10.6c-0.3,3.7,4.4,5.7,8,5.3
			L112.7,97.7z"/>
	</g>
	<g>
		<path class="st0" d="M127.3,72.5c-0.3-0.3,6.2,2.2,6.6,4c-0.4,1.4-4.6,3.4-8,5.3h-2.7c0.9-3.6-0.3-2.1,0-5.3
			C123,73.3,125.9,72.1,127.3,72.5z"/>
	</g>
	<g>
		<path class="st4" d="M127.3,72.5c-0.3-0.3,6.2,2.2,6.6,4c-0.4,1.4-4.6,3.4-8,5.3h-2.7c0.9-3.6-0.3-2.1,0-5.3
			C123,73.3,125.9,72.1,127.3,72.5z"/>
	</g>
	<g>
		<path class="st4" d="M151.2,60.5c3.1-1.2,1.5-5.3,6.6-5.3c5.2,0,7,3.4,11.9,4c2.4-0.6,4.5-3.5,8-4c4.1,0.5,8.8,5.3,8,10.6
			c0.1,0.5,12.7-3.6,11.9,9.3c10.3-2.7,9.3,5.5,10.6,9.3c0.7,4.2,7.2,1,6.6,9.3"/>
	</g>
	<g>
		<path class="st3" d="M17.2,30h9.3c7.8-1.6,10.5-5.9,18.6-5.3c5-0.6,7.6,3,11.9,2.7c3.1,0.4,8.3-3.5,14.6-4c5.2,0.5,8.1,4,11.9,5.3
			c3.4,1.8,7.9,1.7,11.9,1.3c0.5,3.8,0.6,5.8,0,9.3c0.6,2.2,4.5,1.1,4,5.3c0.6,5.5-4.5,4.5-4,6.6l-1.3,18.6c0.9,2,5.6,2.3,5.3,5.3
			c0.2,5.7-4.9,3.9-4,8c-0.4,3.1-0.6,9.5,0,9.3c-10.6,0.2-73.4,0.3-76.9,0c0.5-6.7,0.2-5.7,0-9.3c0.7-2.4-5.3-4-5.3-8
			c0-3.6,3.6-3.4,4-6.6V49.9c-0.3-2-5.7-3.2-5.3-6.6c0-4.1,4.8-3.6,5.3-6.6C16.8,35.7,16.9,31.3,17.2,30z"/>
	</g>
	<g>
		<path class="st4" d="M17.2,30h9.3c7.8-1.6,10.5-5.9,18.6-5.3c5-0.6,7.6,3,11.9,2.7c3.1,0.4,8.3-3.5,14.6-4c5.2,0.5,8.1,4,11.9,5.3
			c3.4,1.8,7.9,1.7,11.9,1.3c0.5,3.8,0.6,5.8,0,9.3c0.6,2.2,4.5,1.1,4,5.3c0.6,5.5-4.5,4.5-4,6.6l-1.3,18.6c0.9,2,5.6,2.3,5.3,5.3
			c0.2,5.7-4.9,3.9-4,8c-0.4,3.1-0.6,9.5,0,9.3c-10.6,0.2-73.4,0.3-76.9,0c0.5-6.7,0.2-5.7,0-9.3c0.7-2.4-5.3-4-5.3-8
			c0-3.6,3.6-3.4,4-6.6V49.9c-0.3-2-5.7-3.2-5.3-6.6c0-4.1,4.8-3.6,5.3-6.6C16.8,35.7,16.9,31.3,17.2,30z"/>
	</g>
	<g>
		<path class="st4" d="M57,27.4v54.4 M25.2,30c-0.1,0.4,0,41.5,0,51.7c-0.1-0.5,59.8-0.4,62.3,0c0.1-11.6,0-51.6,0-51.7"/>
	</g>
	<g>
		<path class="st0" d="M58.3,75.1c2.9-0.2,6.5,1.5,10.7,2.6c6.6,2.2,13.1,0.9,17.2,1.3c2.1,0.8-28.9,1-29.2,1.3
			C57.1,78.8,58.3,75.1,58.3,75.1z"/>
	</g>
	<g>
		<path class="st4" d="M58.3,75.1c2.9-0.2,6.5,1.5,10.7,2.6c6.6,2.2,13.1,0.9,17.2,1.3c2.1,0.8-28.9,1-29.2,1.3
			C57.1,78.8,58.3,75.1,58.3,75.1z"/>
	</g>
	<g>
		<path class="st0" d="M53.1,83.1c-0.2-1.7,1.4-2.8,2.7-2.7c2.6-0.2,4.1,0.9,4,2.7c0.2,0.9-1.4,2-4,2.7C54.4,85.1,52.9,84,53.1,83.1
			z"/>
	</g>
	<g>
		<path class="st4" d="M53.1,83.1c-0.2-1.7,1.4-2.8,2.7-2.7c2.6-0.2,4.1,0.9,4,2.7c0.2,0.9-1.4,2-4,2.7C54.4,85.1,52.9,84,53.1,83.1
			z"/>
	</g>
	<g>
		<path class="st0" d="M54.4,75.1c-2.4-0.2-7.2,1.5-11.9,2.7C36.4,80,30,78.7,25.3,79.1c-1.6,0.8,29.5,1,29.2,1.3
			C54.5,74.2,54.7,74.8,54.4,75.1z"/>
	</g>
	<g>
		<path class="st4" d="M54.4,75.1c-2.4-0.2-7.2,1.5-11.9,2.7C36.4,80,30,78.7,25.3,79.1c-1.6,0.8,29.5,1,29.2,1.3
			C54.5,74.2,54.7,74.8,54.4,75.1z"/>
	</g>
	<g>
		<path class="st3" d="M66.3,267.4c0.3-17.2,14.8-31.2,33.2-30.5c17.5-0.6,32,13.3,31.8,30.5c0.2,17.3-14.3,31.3-31.8,31.8
			C81.2,298.7,66.6,284.8,66.3,267.4z"/>
	</g>
	<g>
		<path class="st2" d="M66.3,267.4c0.3-17.2,14.8-31.2,33.2-30.5c17.5-0.6,32,13.3,31.8,30.5c0.2,17.3-14.3,31.3-31.8,31.8
			C81.2,298.7,66.6,284.8,66.3,267.4z"/>
	</g>
	<g>
		<path class="st3" d="M155.2,191.8c0.6-16.6,15.1-30.6,33.2-30.5c17.8-0.1,32.3,13.9,31.8,30.5c0.5,17.9-14,31.9-31.8,31.8
			C170.3,223.7,155.8,209.7,155.2,191.8z"/>
	</g>
	<g>
		<path class="st2" d="M155.2,191.8c0.6-16.6,15.1-30.6,33.2-30.5c17.8-0.1,32.3,13.9,31.8,30.5c0.5,17.9-14,31.9-31.8,31.8
			C170.3,223.7,155.8,209.7,155.2,191.8z"/>
	</g>
	<g>
		<path class="st3" d="M240.1,267.4c-0.2-17.2,14.4-31.2,31.8-30.5c18.3-0.6,32.9,13.3,33.2,30.5c-0.3,17.3-14.8,31.3-33.2,31.8
			C254.4,298.7,239.9,284.8,240.1,267.4z"/>
	</g>
	<g>
		<path class="st2" d="M240.1,267.4c-0.2-17.2,14.4-31.2,31.8-30.5c18.3-0.6,32.9,13.3,33.2,30.5c-0.3,17.3-14.8,31.3-33.2,31.8
			C254.4,298.7,239.9,284.8,240.1,267.4z"/>
	</g>
	<g>
		<path class="st4" d="M115.4,96.3c7.2,0,11.1-0.5,14.6-2.7c3.4-1.4,9.8-5.5,11.9-9.3 M153.8,83.1c-0.5-0.6-0.5-1.3,0-1.3
			c-0.5-1.7-6.6-1.1-8-1.3c-1.1-0.5,2.6-2,1.3-2.7c4.4-0.8,14.1-5,10.6-8c-3.2-3.5-5.1-6.8-6.6-9.3c-2.8-2.2-5.7-3.6-10.6-4
			c-3.3,0.3-9.5,7-11.9,9.3c1.7-2.3,7.2-7,6.6-10.6c0.5-9-6.4-16.5-8-23.9 M220.1,76.4c-7.7-9.5-15-20.2-15.9-21.2
			c-4.4-1.2-14.2-20.6-39.8-22.5c-7.1,0.1-32.1,2.6-33.2,9.3"/>
	</g>
	<g>
		<path class="st5" d="M2.7,2.2H374c0.3-0.4,0.3,182.1,0,185.7C371.8,339,202.1,418.6,180.4,417.3C158.6,417.1,2.2,339.2,2.7,186.5
			C2.7,184,2.7,1.7,2.7,2.2z"/>
	</g>
	<g>
		<line class="st6" x1="1480.2" y1="1.8" x2="1480.2" y2="396.3"/>
	</g>
	<g>
		<g>
			<path class="st0" d="M72.4,572.3c-4,1.1-16.6,1.7-19.8,1.7C21.4,574,11,555.2,11,538.8c0-25.1,19.1-39.3,36.5-39.3
				c10,0,13.9,3.3,19.3,3.3c2.2,0,3.2-0.6,4-2.4H73v20.9h-2c-1.9-13.5-13.9-19.2-23.5-19.2c-14.6,0-25.6,12.8-25.6,32.2
				c0,20.8,12.4,36.2,29.2,36.2c5.1,0,11.9-1.2,11.9-7.6v-7.7c0-8.7-2-11.8-7.8-11.8h-2.7v-2.1h28.7v2.1c-6.9,0-8.8,3.3-8.8,9.5
				C72.4,552.9,72.4,572.3,72.4,572.3z"/>
			<path class="st0" d="M98.2,545.5c-0.2,19.7,11.5,24.7,17.5,24.7c6.1,0,9.2-2.1,15.5-9.2v3.2c-5.3,6.8-10.4,9.4-18.1,9.4
				c-13.8,0-23.7-9.5-23.7-22.8s9.7-23.7,22.1-23.7c10.2,0,19.6,8.2,19,18.3L98.2,545.5L98.2,545.5z M122.1,543.4
				c0.4-9.7-6.2-13.6-11.8-13.6c-7.3,0-11.6,5.5-12.1,13.6H122.1z"/>
			<path class="st0" d="M183,562.7c0,5.7,1.2,7.4,7.4,7.4v2.1H167v-2.1c5.9,0,7.6-1.4,7.6-5.5v-22.9c0-7.1-5.1-10-9.8-10
				c-4.3,0-8.2,2.7-12.5,8.5v21.4c0,6.7,0.9,8.4,7.4,8.4v2.1h-23.2V570c5.8,0,7.3-0.5,7.3-8.4v-24.7c0-5.3-1.4-6.4-7.3-6.4v-2.1
				l13.6-1.4h2.1v8.8c5.2-5.9,10.3-8.8,15.9-8.8c7.3,0,14.9,5.2,14.9,15.7V562.7z"/>
			<path class="st0" d="M205.2,545.5c-0.2,19.7,11.5,24.7,17.5,24.7c6.1,0,9.2-2.1,15.5-9.2v3.2c-5.3,6.8-10.4,9.4-18.1,9.4
				c-13.8,0-23.7-9.5-23.7-22.8s9.7-23.7,22.1-23.7c10.2,0,19.6,8.2,19,18.3L205.2,545.5L205.2,545.5z M229.2,543.4
				c0.4-9.7-6.2-13.6-11.8-13.6c-7.3,0-11.6,5.5-12.1,13.6H229.2z"/>
			<path class="st0" d="M260.6,564c0,4.8,1.5,6.2,7.3,6.2v2.1h-23.2v-2.1c6.7,0,7.4-1.7,7.4-8.4v-23.9c0-6.4-1.6-7.2-9-7.2v-2.1
				l15.4-1.4h2.1v9.5c8.2-7.1,12-9.5,15-9.5c2.5,0,5.8,1.5,8.1,3.5l-3.3,7.8c-3.6-2-7.4-3.8-10.4-3.8c-2.8,0-5.3,1.5-9.3,5.3v24
				H260.6z"/>
			<path class="st0" d="M321.3,562.1c0,5.1,0.5,6.8,2.5,6.8c1.4,0,2-1.1,3-4.2h2.1c-0.4,5.5-3.6,8.9-8.5,8.9c-3.7,0-5.9-1.9-7.4-6.2
				c-4.3,4.7-7.2,6.2-11.8,6.2c-6.8,0-12.5-5.2-12.5-11.6c0-12.5,17.1-12,24.3-16.2v-3.2c0-6.2-3.6-10.7-9.8-10.7
				c-5,0-9.8,3.1-11.6,9.4l-2.2-0.6c1.9-8.2,8.3-13.5,16.2-13.5c7.3,0,15.9,4.2,15.9,16.1v18.8H321.3z M312.9,548.5
				c-8.3,3.6-15.7,3.5-15.7,12.4c0,4.5,3.1,8.1,6.7,8.1c2.6,0,7.3-1.9,9-5.6V548.5z"/>
			<path class="st0" d="M341,504c0-4.2-1.4-5.9-5.9-5.9h-2.8V496l15.1-1.5h2.1V564c0,4.7,1.5,6.2,6.8,6.2h1.1v2.1H333v-2.1h2.2
				c4.5,0,5.8-1.9,5.8-8.3V504z"/>
			<path class="st0" d="M409.4,558.9c0,8.7,2.2,11.3,8.1,11.3v2.1H392v-2.1c5.5,0,8.1-1.7,8.1-11.3v-44.5c0-9.3-2.4-11-8.1-11v-2.1
				h29c16,0,23.7,9.2,23.7,18.6c0,7.8-4.2,14.4-14.6,17.5c13.3,8.5,17.7,32,29.5,32.8v2.1h-14.5c-13.3-16.1-17-32.8-30-32.8h-5.7
				V558.9z M409.4,536.5h8.7c12,0,16.7-8.2,16.7-16.4c0-9.4-7.1-16.1-18-16.1h-7.4L409.4,536.5L409.4,536.5z"/>
			<path class="st0" d="M489.7,573.6c-13.8,0-24-9.9-24-23.2c0-13.4,10.3-23.3,24-23.3c13.8,0,24,9.9,24,23.3
				C513.7,563.7,503.4,573.6,489.7,573.6z M489.7,529.7c-9.3,0-14.9,8.2-14.9,20.8c0,11.3,4.7,20.7,14.9,20.7
				c10.4,0,14.9-10,14.9-20.7C504.5,539.4,499.8,529.7,489.7,529.7z"/>
			<path class="st0" d="M534.2,533.7c3.7-4.1,9.4-6.6,14.7-6.6c11.4,0,20.3,9.4,20.3,21.4c0,10.4-7.3,24.2-29.9,24.2
				c-3.6,0-7.7-0.4-13.6-1.4v-65.8c0-6.7-0.7-7.6-7.8-7.6V496l14.1-1.5h2.1v39.2H534.2z M534.2,562c0,5.8,1.4,8.5,7.4,8.5
				c9.7,0,18.5-5.9,18.5-20.9c0-12.5-7.9-18.8-14.6-18.8c-4.5,0-7.8,1.9-11.3,6.2L534.2,562L534.2,562z"/>
			<path class="st0" d="M601.9,573.6c-13.8,0-24-9.9-24-23.2c0-13.4,10.3-23.3,24-23.3c13.8,0,24,9.9,24,23.3
				C626,563.7,615.7,573.6,601.9,573.6z M601.9,529.7c-9.3,0-14.9,8.2-14.9,20.8c0,11.3,4.7,20.7,14.9,20.7
				c10.4,0,14.9-10,14.9-20.7C616.8,539.4,612.1,529.7,601.9,529.7z"/>
			<path class="st0" d="M649,528.3h15.2v3.2H649v28.2c0,6.1,3.1,9.2,7.9,9.2c3.2,0,5.6-1.2,8.2-4.2l1.4,1.6
				c-3.8,4.8-8.3,7.3-13.3,7.3c-7.4,0-12.6-5.2-12.6-12.8v-29.4h-8.3v-2.1c5.9-3,10.9-8.3,14.6-15.9h2.1L649,528.3L649,528.3z"/>
			<path class="st0" d="M684.9,564.1c0,4.3,1.1,6.1,7.3,6.1v2.1h-24v-2.1c6.7,0,8.3-0.9,8.3-6.1v-26.9c0-6.1-1.9-6.6-8.3-6.6v-2.1
				l14.6-1.4h2.1L684.9,564.1L684.9,564.1z M686.2,509.8c0,3-2.4,5.5-5.3,5.5c-3,0-5.5-2.5-5.5-5.5s2.5-5.3,5.5-5.3
				C683.8,504.5,686.2,506.9,686.2,509.8z"/>
			<path class="st0" d="M739.3,542.7h-2.1c-1.9-7.9-7.4-13-14.7-13c-8.7,0-14.7,7.4-14.7,18.2c0,12,7.6,22.1,16.5,22.1
				c5.3,0,11.8-2.8,16.4-9.2v3.2c-4.7,6.4-11.4,9.7-19.3,9.7c-13,0-22.1-9-22.1-22.2c0-13.5,10.2-24.3,22.7-24.3
				c6.6,0,10.2,2.5,12.4,2.5c1.1,0,2.2-0.9,3-2.5h2.1v15.5H739.3z"/>
			<path class="st0" d="M772.5,540.7c-0.9-7.3-5.7-11-10.9-11c-4.3,0-7.3,2.4-7.3,5.9c0,11.1,23,8.2,23,24.5
				c0,7.3-6.3,13.5-13.9,13.5c-4.8,0-9-3.2-11.1-3.2c-1.6,0-2.7,1.4-2.8,3h-2.1v-15h2.1c1.9,9.2,8.7,12.8,14.1,12.8
				c4.3,0,7.7-3.2,7.7-7.6c0-12.3-23.3-8.9-23.3-23.8c0-6.8,6.1-12.6,13.4-12.6c4.6,0,5.9,2.1,8.9,2.1c1.1,0,2-0.6,2.6-2.1h2.1v13.5
				L772.5,540.7L772.5,540.7z"/>
			<path class="st0" d="M792.2,591.5c6.4-3.3,8.7-6.9,8.7-13.9c0-2-0.4-2.2-2.2-2.2c-3.6,0-6.4-2.6-6.4-5.9c0-3.2,2.7-5.8,5.9-5.8
				c5.5,0,9.2,5,9.2,11.9c0,8.5-6.2,16-15.1,18.1v-2.2H792.2z"/>
			<path class="st0" d="M876.1,543.5h-22.9l-4.8,14.2c-2.4,6.9-3.6,12.3,3.8,12.4v2.1h-18.3v-2.1c6.7-1,8.3-4.6,10.5-11.1l19.6-58.5
				h7.3l20.6,61.1c2.1,6.6,3.8,8.5,10.2,8.5v2.1h-25v-2.1c4.8,0,7.2-2.1,5.6-6.9L876.1,543.5z M864.7,509.1h-0.2l-9.9,30.1h19.9
				L864.7,509.1z"/>
			<path class="st0" d="M948.8,564c0,4.8,1.6,6.2,7.6,6.2v2.1l-16,0.9v-8.1h-0.2c-4.3,5.7-9.4,8.5-15.4,8.5
				c-8.7,0-14.4-6.6-14.4-14.7v-22.4c0-4.2-1.5-5.8-7.8-5.8v-2.1l14.1-1.4h2.1v31.3c0,6.2,4,9.9,9.9,9.9c4.2,0,8.1-2.4,11.6-7.2
				v-23.7c0-6.1-1-6.8-8.5-6.9v-2.1l14.9-1.4h2.1L948.8,564L948.8,564z"/>
			<path class="st0" d="M976.5,528.3h15.2v3.2h-15.2v28.2c0,6.1,3.1,9.2,7.9,9.2c3.2,0,5.6-1.2,8.2-4.2l1.4,1.6
				c-3.8,4.8-8.3,7.3-13.3,7.3c-7.4,0-12.6-5.2-12.6-12.8v-29.4h-8.3v-2.1c5.9-3,10.9-8.3,14.6-15.9h2.1L976.5,528.3L976.5,528.3z"
				/>
			<path class="st0" d="M1022.4,573.6c-13.8,0-24-9.9-24-23.2c0-13.4,10.3-23.3,24-23.3c13.8,0,24,9.9,24,23.3
				C1046.4,563.7,1036.1,573.6,1022.4,573.6z M1022.4,529.7c-9.3,0-14.9,8.2-14.9,20.8c0,11.3,4.7,20.7,14.9,20.7
				c10.4,0,14.9-10,14.9-20.7C1037.2,539.4,1032.5,529.7,1022.4,529.7z"/>
			<path class="st0" d="M1129.7,564.1c0,4.5,1.5,6.1,7.4,6.1v2.1h-23.3v-2.1c6.2,0,7.4-1.2,7.4-8.4V541c0-5.7-3.7-9-9.5-9
				c-4.7,0-8.5,2.6-12.4,8.4v23.5c0,4.6,1.4,6.3,7.3,6.3v2.1h-23v-2.1c5.9,0,7.3-0.6,7.3-8.4v-20.3c0-6.6-4.6-9.5-9.3-9.5
				c-5,0-9.8,3.5-12.6,8.4v23.9c0,4.5,1.9,6.1,7.4,6.1v2h-23.3v-2.1c5.2,0,7.4-0.5,7.4-7.1v-26c0-4.8-2.1-6.4-6.1-6.4h-2.7v-2.1
				l15.1-1.4h2.1v9.2h0.2c3.6-5.6,9.8-9.2,15.6-9.2c5.8,0,11.5,3.2,13.8,9.9c4.7-6.6,10.3-9.9,16.2-9.9c6.2,0,14.9,3.6,14.9,14.9
				L1129.7,564.1L1129.7,564.1z"/>
			<path class="st0" d="M1176.2,562.1c0,5.1,0.5,6.8,2.5,6.8c1.4,0,2-1.1,3-4.2h2.1c-0.4,5.5-3.6,8.9-8.5,8.9
				c-3.7,0-5.9-1.9-7.4-6.2c-4.3,4.7-7.2,6.2-11.8,6.2c-6.8,0-12.5-5.2-12.5-11.6c0-12.5,17.1-12,24.3-16.2v-3.2
				c0-6.2-3.6-10.7-9.8-10.7c-5,0-9.8,3.1-11.6,9.4l-2.2-0.6c1.9-8.2,8.3-13.5,16.2-13.5c7.3,0,15.9,4.2,15.9,16.1v18.8H1176.2z
				 M1167.8,548.5c-8.3,3.6-15.7,3.5-15.7,12.4c0,4.5,3.1,8.1,6.7,8.1c2.6,0,7.3-1.9,9-5.6V548.5z"/>
			<path class="st0" d="M1202.6,528.3h15.2v3.2h-15.2v28.2c0,6.1,3.1,9.2,7.9,9.2c3.2,0,5.6-1.2,8.2-4.2l1.4,1.6
				c-3.8,4.8-8.3,7.3-13.3,7.3c-7.4,0-12.6-5.2-12.6-12.8v-29.4h-8.3v-2.1c5.9-3,10.9-8.3,14.6-15.9h2.1L1202.6,528.3L1202.6,528.3z
				"/>
			<path class="st0" d="M1238.5,564.1c0,4.3,1.1,6.1,7.3,6.1v2.1h-24v-2.1c6.7,0,8.3-0.9,8.3-6.1v-26.9c0-6.1-1.9-6.6-8.3-6.6v-2.1
				l14.6-1.4h2.1V564.1z M1239.8,509.8c0,3-2.4,5.5-5.3,5.5c-3,0-5.5-2.5-5.5-5.5s2.5-5.3,5.5-5.3
				C1237.4,504.5,1239.8,506.9,1239.8,509.8z"/>
			<path class="st0" d="M1276.8,573.6c-13.8,0-24-9.9-24-23.2c0-13.4,10.3-23.3,24-23.3c13.8,0,24,9.9,24,23.3
				C1300.9,563.7,1290.6,573.6,1276.8,573.6z M1276.8,529.7c-9.3,0-14.9,8.2-14.9,20.8c0,11.3,4.7,20.7,14.9,20.7
				c10.4,0,14.9-10,14.9-20.7C1291.7,539.4,1287,529.7,1276.8,529.7z"/>
			<path class="st0" d="M1352.9,562.7c0,5.7,1.2,7.4,7.4,7.4v2.1h-23.4v-2.1c5.9,0,7.6-1.4,7.6-5.5v-22.9c0-7.1-5.1-10-9.8-10
				c-4.3,0-8.2,2.7-12.5,8.5v21.4c0,6.7,0.9,8.4,7.4,8.4v2.1h-23.2V570c5.8,0,7.3-0.5,7.3-8.4v-24.7c0-5.3-1.4-6.4-7.3-6.4v-2.1
				l13.6-1.4h2.1v8.8c5.2-5.9,10.3-8.8,15.9-8.8c7.3,0,14.9,5.2,14.9,15.7V562.7z"/>
			<path class="st0" d="M1372.8,591.5c6.4-3.3,8.7-6.9,8.7-13.9c0-2-0.4-2.2-2.2-2.2c-3.6,0-6.4-2.6-6.4-5.9c0-3.2,2.7-5.8,5.9-5.8
				c5.5,0,9.2,5,9.2,11.9c0,8.5-6.2,16-15.1,18.1L1372.8,591.5L1372.8,591.5z"/>
			<path class="st0" d="M1465.1,516.9h-2.1c-1.1-10.5-8.5-14.6-15.7-14.6c-7.4,0-12.8,4.1-12.8,10.7c0,13.1,18.1,16.6,28.2,26.8
				c5,5,6.2,9.4,6.2,14.1c0,11.1-9,20.2-20.2,20.2c-7.6,0-13.9-3.7-16.2-3.7c-1.2,0-2.1,0.9-2.7,2.7h-2.1v-19.2h2.1
				c0.1,13.1,10.9,17.5,17.1,17.5c8.5,0,14.2-5,14.2-12.6c0-12.3-19.1-18-27-25.9c-4.3-4.3-6.1-9.3-6.1-14.9
				c0-10.9,7.8-18.3,19.3-18.3c7.6,0,11.1,2.7,13.9,2.7c1.1,0,1.4-0.2,1.9-2h2L1465.1,516.9L1465.1,516.9z"/>
			<path class="st0" d="M1485.9,545.5c-0.2,19.7,11.5,24.7,17.5,24.7c6.1,0,9.2-2.1,15.5-9.2v3.2c-5.3,6.8-10.4,9.4-18.1,9.4
				c-13.8,0-23.7-9.5-23.7-22.8s9.7-23.7,22.1-23.7c10.2,0,19.6,8.2,19,18.3L1485.9,545.5L1485.9,545.5z M1509.8,543.4
				c0.4-9.7-6.2-13.6-11.8-13.6c-7.3,0-11.6,5.5-12.1,13.6H1509.8z"/>
			<path class="st0" d="M1570.7,562.7c0,5.7,1.2,7.4,7.4,7.4v2.1h-23.4v-2.1c5.9,0,7.6-1.4,7.6-5.5v-22.9c0-7.1-5.1-10-9.8-10
				c-4.3,0-8.2,2.7-12.5,8.5v21.4c0,6.7,0.9,8.4,7.4,8.4v2.1h-23.2V570c5.8,0,7.3-0.5,7.3-8.4v-24.7c0-5.3-1.4-6.4-7.3-6.4v-2.1
				l13.6-1.4h2.1v8.8c5.2-5.9,10.3-8.8,15.9-8.8c7.3,0,14.9,5.2,14.9,15.7V562.7z"/>
			<path class="st0" d="M1609.7,540.7c-0.9-7.3-5.7-11-10.9-11c-4.3,0-7.3,2.4-7.3,5.9c0,11.1,23,8.2,23,24.5
				c0,7.3-6.3,13.5-13.9,13.5c-4.8,0-9-3.2-11.1-3.2c-1.6,0-2.7,1.4-2.8,3h-2.1v-15h2.1c1.9,9.2,8.7,12.8,14.1,12.8
				c4.3,0,7.7-3.2,7.7-7.6c0-12.3-23.3-8.9-23.3-23.8c0-6.8,6.1-12.6,13.4-12.6c4.6,0,5.9,2.1,8.9,2.1c1.1,0,2-0.6,2.6-2.1h2.1v13.5
				L1609.7,540.7L1609.7,540.7z"/>
			<path class="st0" d="M1636.9,564.1c0,4.3,1.1,6.1,7.3,6.1v2.1h-24v-2.1c6.7,0,8.3-0.9,8.3-6.1v-26.9c0-6.1-1.9-6.6-8.3-6.6v-2.1
				l14.6-1.4h2.1V564.1z M1638.2,509.8c0,3-2.4,5.5-5.3,5.5c-3,0-5.5-2.5-5.5-5.5s2.5-5.3,5.5-5.3
				C1635.8,504.5,1638.2,506.9,1638.2,509.8z"/>
			<path class="st0" d="M1694.6,562.7c0,5.7,1.2,7.4,7.4,7.4v2.1h-23.4v-2.1c5.9,0,7.6-1.4,7.6-5.5v-22.9c0-7.1-5.1-10-9.8-10
				c-4.3,0-8.2,2.7-12.5,8.5v21.4c0,6.7,0.9,8.4,7.4,8.4v2.1h-23.2V570c5.8,0,7.3-0.5,7.3-8.4v-24.7c0-5.3-1.4-6.4-7.3-6.4v-2.1
				l13.6-1.4h2.1v8.8c5.2-5.9,10.3-8.8,15.9-8.8c7.3,0,14.9,5.2,14.9,15.7V562.7z"/>
			<path class="st0" d="M1753.8,532.6h-11.6c3.5,4.2,5,8.5,5,12.8c0,8.7-7.2,16.8-16.4,17.3c-6.8,0.4-14.2,5.5-14.2,8.2
				c0,1.5,0.2,1.7,0.9,2.5c3.5,4.1,26.5,4.1,32.7,10.3c2.6,2.6,3.6,4.7,3.6,7.8c0,10.3-11.9,18.3-27,18.3
				c-12.8,0-21.6-5.3-21.6-13.4c0-4.8,3.1-9.2,14.2-13.8v-0.2c-5.9-1.4-9.5-4.3-9.5-8.1c0-5.1,4.8-8.9,13.5-12v-0.2
				c-8.8-2.4-13.8-8.4-13.8-16.6c0-10.5,7.9-18.3,18.6-18.3c1.6,0,3.7,0.1,5.8,0.2c2.1,0.1,4.2,0.2,5.7,0.2h14.1L1753.8,532.6
				L1753.8,532.6z M1723.3,583.7c-8.2,2.2-12.8,5.9-12.8,10.4c0,6.3,9.5,11,22.1,11c9.7,0,16.5-4,16.5-9.8
				C1749.1,589.9,1744.4,587.3,1723.3,583.7z M1728.2,560.5c6.4,0,10.9-5.7,10.9-15.9c0-8.9-4.3-15-10.8-15c-6.6,0-10.9,6.1-10.9,15
				C1717.5,554.2,1721.8,560.5,1728.2,560.5z"/>
			<path class="st0" d="M1852.6,531.9c-4.5,0-5.5,0.2-7.6,2.4c-4.7,4.7-5,12.1-10.8,21.1c5.9,7.4,10.9,13.6,14.5,13.6
				c1.4,0,3.1-0.9,4.8-2.5l1.6,1.4c-2.7,4-6.9,6.2-11.3,6.2c-7.3,0-11.1-6.6-15.2-10.7c-5.9,7.3-12.3,10.7-20.6,10.7
				c-11,0-19.8-7.8-19.8-17.6c0-7.3,5.7-14.5,15.5-19.9c-5.3-5-7.9-10-7.9-15.6c0-9.4,7.1-16.2,16.8-16.2c7.9,0,14.2,5.8,14.2,12.9
				c0,5.6-3.8,11-12.8,15.7c6.6,5.7,11,10.8,18.2,19.6c4.1-7.1,5.2-11.9,5.2-14.9c0-4.3-1.2-5.8-5.2-6.1v-2.1h20.2v2H1852.6z
				 M1813.2,568.6c5.1,0,9-2.1,13.9-7.6c-5.9-7.3-14.9-17.1-21.4-22.7c-5.2,2.8-8.8,8.4-8.8,13.8
				C1796.9,560.4,1804.9,568.6,1813.2,568.6z M1812.4,531.8c5.6-3.2,8.2-7.7,8.2-13.4c0-5.9-3.8-10.2-9.4-10.2
				c-5.3,0-9.2,3.6-9.2,8.7C1802,521.6,1806.8,527.4,1812.4,531.8z"/>
			<path class="st0" d="M1909.4,558.9c0,8.8,2.1,11.3,8.1,11.3v2.1H1892v-2.1c5,0,8.1-1.6,8.1-11v-44.5c0-8.7-2.1-11.3-8.1-11.3
				v-2.1h25.9c19.6,0,27.5,10.4,27.5,20.2c0,11.8-8.9,18.3-25,18.3c-3.1,0-5.7-0.1-10.9-0.7L1909.4,558.9L1909.4,558.9z
				 M1909.4,535.9c3.2,1.1,5.1,1.2,8.8,1.2c10.5,0,17.2-5.7,17.2-15.4c0-7.6-4.2-17.7-17.2-17.7h-8.8V535.9z"/>
			<path class="st0" d="M1957.6,545.5c-0.2,19.7,11.5,24.7,17.5,24.7c6.1,0,9.2-2.1,15.5-9.2v3.2c-5.3,6.8-10.4,9.4-18.1,9.4
				c-13.8,0-23.7-9.5-23.7-22.8s9.7-23.7,22.1-23.7c10.2,0,19.6,8.2,19,18.3L1957.6,545.5L1957.6,545.5z M1981.5,543.4
				c0.4-9.7-6.2-13.6-11.8-13.6c-7.3,0-11.6,5.5-12.1,13.6H1981.5z"/>
			<path class="st0" d="M2012.9,564c0,4.8,1.5,6.2,7.3,6.2v2.1H1997v-2.1c6.7,0,7.4-1.7,7.4-8.4v-23.9c0-6.4-1.6-7.2-9-7.2v-2.1
				l15.4-1.4h2.1v9.5c8.2-7.1,12-9.5,15-9.5c2.5,0,5.8,1.5,8.1,3.5l-3.3,7.8c-3.6-2-7.4-3.8-10.4-3.8c-2.8,0-5.3,1.5-9.3,5.3
				L2012.9,564L2012.9,564z"/>
			<path class="st0" d="M2081.7,542.7h-2.1c-1.9-7.9-7.4-13-14.7-13c-8.7,0-14.7,7.4-14.7,18.2c0,12,7.6,22.1,16.5,22.1
				c5.3,0,11.8-2.8,16.4-9.2v3.2c-4.7,6.4-11.4,9.7-19.3,9.7c-13,0-22.1-9-22.1-22.2c0-13.5,10.2-24.3,22.7-24.3
				c6.6,0,10.2,2.5,12.4,2.5c1.1,0,2.2-0.9,3-2.5h2.1v15.5H2081.7z"/>
			<path class="st0" d="M2098.2,545.5c-0.2,19.7,11.5,24.7,17.5,24.7c6.1,0,9.2-2.1,15.5-9.2v3.2c-5.3,6.8-10.4,9.4-18.1,9.4
				c-13.8,0-23.7-9.5-23.7-22.8s9.7-23.7,22.1-23.7c10.2,0,19.6,8.2,19,18.3L2098.2,545.5L2098.2,545.5z M2122.1,543.4
				c0.4-9.7-6.2-13.6-11.8-13.6c-7.3,0-11.6,5.5-12.1,13.6H2122.1z"/>
			<path class="st0" d="M2144,537.5c0-5.9-1.1-6.8-7.7-6.8v-2.1l14-1.4h2.1v7.4c5.6-5.5,9.7-7.4,15.2-7.4c11.4,0,19.8,9.8,19.8,22.9
				c0,13.5-9.3,23.5-21.8,23.5c-4.7,0-8.3-1.4-13.3-5.2v28.9c0,5.3,1.1,7.3,7.3,7.3v2.1h-23.4v-2.1c5.9,0,7.7-1.2,7.7-6.1
				L2144,537.5L2144,537.5z M2152.4,565.3c3.2,3.3,7.9,5.5,12.1,5.5c7.8,0,13.8-8.3,13.8-19.2c0-11.8-5.8-20.3-14-20.3
				c-4.5,0-7.8,1.9-11.9,6.6L2152.4,565.3L2152.4,565.3z"/>
			<path class="st0" d="M2210.6,528.3h15.2v3.2h-15.2v28.2c0,6.1,3.1,9.2,7.9,9.2c3.2,0,5.6-1.2,8.2-4.2l1.4,1.6
				c-3.8,4.8-8.3,7.3-13.3,7.3c-7.4,0-12.6-5.2-12.6-12.8v-29.4h-8.3v-2.1c5.9-3,10.9-8.3,14.6-15.9h2.1L2210.6,528.3L2210.6,528.3z
				"/>
			<path class="st0" d="M2246.6,564.1c0,4.3,1.1,6.1,7.3,6.1v2.1h-24v-2.1c6.7,0,8.3-0.9,8.3-6.1v-26.9c0-6.1-1.9-6.6-8.3-6.6v-2.1
				l14.6-1.4h2.1L2246.6,564.1L2246.6,564.1z M2247.8,509.8c0,3-2.4,5.5-5.3,5.5c-3,0-5.5-2.5-5.5-5.5s2.5-5.3,5.5-5.3
				S2247.8,506.9,2247.8,509.8z"/>
			<path class="st0" d="M2284.9,573.6c-13.8,0-24-9.9-24-23.2c0-13.4,10.3-23.3,24-23.3c13.8,0,24,9.9,24,23.3
				C2308.9,563.7,2298.6,573.6,2284.9,573.6z M2284.9,529.7c-9.3,0-14.9,8.2-14.9,20.8c0,11.3,4.7,20.7,14.9,20.7
				c10.4,0,14.9-10,14.9-20.7C2299.7,539.4,2295,529.7,2284.9,529.7z"/>
			<path class="st0" d="M2360.9,562.7c0,5.7,1.2,7.4,7.4,7.4v2.1h-23.4v-2.1c5.9,0,7.6-1.4,7.6-5.5v-22.9c0-7.1-5.1-10-9.8-10
				c-4.3,0-8.2,2.7-12.5,8.5v21.4c0,6.7,0.9,8.4,7.4,8.4v2.1h-23.2V570c5.8,0,7.3-0.5,7.3-8.4v-24.7c0-5.3-1.4-6.4-7.3-6.4v-2.1
				l13.6-1.4h2.1v8.8c5.2-5.9,10.3-8.8,15.9-8.8c7.3,0,14.9,5.2,14.9,15.7V562.7z"/>
			<path class="st0" d="M2454.6,572.3h-51.4v-2.1c5.7,0,8.1-3.1,8.1-11.9v-44.6c0-8.2-2.4-10.3-8.1-10.3v-2.1h25.4v2.1
				c-5.9,0-7.9,3.6-7.9,11.2V562c0,5.6,2.1,6.8,8.1,6.8h14.1c8.5,0,10.9-1.9,14-12h2.1L2454.6,572.3z"/>
			<path class="st0" d="M2496.2,562.1c0,5.1,0.5,6.8,2.5,6.8c1.4,0,2-1.1,3-4.2h2.1c-0.4,5.5-3.6,8.9-8.5,8.9
				c-3.7,0-5.9-1.9-7.4-6.2c-4.3,4.7-7.2,6.2-11.8,6.2c-6.8,0-12.5-5.2-12.5-11.6c0-12.5,17.1-12,24.3-16.2v-3.2
				c0-6.2-3.6-10.7-9.8-10.7c-5,0-9.8,3.1-11.6,9.4l-2.2-0.6c1.9-8.2,8.3-13.5,16.2-13.5c7.3,0,15.9,4.2,15.9,16.1v18.8H2496.2z
				 M2487.8,548.5c-8.3,3.6-15.7,3.5-15.7,12.4c0,4.5,3.1,8.1,6.7,8.1c2.6,0,7.3-1.9,9-5.6V548.5z"/>
			<path class="st0" d="M2521.1,533.7c3.7-4.1,9.4-6.6,14.7-6.6c11.4,0,20.3,9.4,20.3,21.4c0,10.4-7.3,24.2-29.9,24.2
				c-3.6,0-7.7-0.4-13.6-1.4v-65.8c0-6.7-0.7-7.6-7.8-7.6V496l14.1-1.5h2.1L2521.1,533.7L2521.1,533.7z M2521.1,562
				c0,5.8,1.4,8.5,7.4,8.5c9.7,0,18.5-5.9,18.5-20.9c0-12.5-7.9-18.8-14.6-18.8c-4.5,0-7.8,1.9-11.3,6.2L2521.1,562L2521.1,562z"/>
		</g>
	</g>
</g>
</svg>
